<?xml version="1.0" encoding="utf-8"?>
<!-- Generator: Adobe Illustrator 24.3.0, SVG Export Plug-In . SVG Version: 6.00 Build 0)  -->
<svg version="1.1" id="Layer_1" xmlns="http://www.w3.org/2000/svg" xmlns:xlink="http://www.w3.org/1999/xlink" x="0px" y="0px"
	 viewBox="0 0 150 150" style="enable-background:new 0 0 150 150;" xml:space="preserve">
<style type="text/css">
	.st0{fill:#0ACF83;}
	.st1{fill:#A259FF;}
	.st2{fill:#F24E1E;}
	.st3{fill:#FF7262;}
	.st4{fill:#1ABCFE;}
</style>
<g>
	<path class="st0" d="M54.03,137.92c11.58,0,20.97-9.4,20.97-20.97V95.97H54.03c-11.58,0-20.97,9.4-20.97,20.97
		S42.45,137.92,54.03,137.92z"/>
	<path class="st1" d="M33.05,75c0-11.58,9.4-20.97,20.97-20.97H75v41.95H54.03C42.45,95.97,33.05,86.58,33.05,75z"/>
	<path class="st2" d="M33.05,33.05c0-11.58,9.4-20.97,20.97-20.97H75v41.95H54.03C42.45,54.03,33.05,44.63,33.05,33.05z"/>
	<path class="st3" d="M75,12.08h20.97c11.58,0,20.97,9.4,20.97,20.97s-9.4,20.97-20.97,20.97H75V12.08z"/>
	<path class="st4" d="M116.95,75c0,11.58-9.4,20.97-20.97,20.97S75,86.58,75,75s9.4-20.97,20.97-20.97S116.95,63.42,116.95,75z"/>
</g>
</svg>
