<?xml version="1.0" encoding="utf-8"?>
<!-- Generator: Adobe Illustrator 24.3.0, SVG Export Plug-In . SVG Version: 6.00 Build 0)  -->
<svg version="1.1"
	 id="svg3430" xmlns:cc="http://creativecommons.org/ns#" xmlns:dc="http://purl.org/dc/elements/1.1/" xmlns:rdf="http://www.w3.org/1999/02/22-rdf-syntax-ns#" xmlns:svg="http://www.w3.org/2000/svg"
	 xmlns="http://www.w3.org/2000/svg" xmlns:xlink="http://www.w3.org/1999/xlink" x="0px" y="0px" viewBox="0 0 720 575.7"
	 style="enable-background:new 0 0 720 575.7;" xml:space="preserve">
<style type="text/css">
	.st0{clip-path:url(#SVGID_2_);}
	.st1{fill:url(#path3462_1_);}
	.st2{clip-path:url(#SVGID_4_);}
	.st3{fill:#777BB3;}
	.st4{clip-path:url(#SVGID_6_);}
	.st5{fill:#FFFFFF;}
</style>
<g id="g3438" transform="matrix(1.25,0,0,-1.25,-4.4,394.29875)">
	<g id="g3440">
		<g>
			<defs>
				<path id="SVGID_1_" d="M15.04,47.53c0-95.52,123.79-172.96,276.48-172.96l0,0C444.21-125.43,568-47.99,568,47.53l0,0
					c0,95.52-123.79,172.96-276.48,172.96l0,0C138.83,220.49,15.04,143.05,15.04,47.53"/>
			</defs>
			<clipPath id="SVGID_2_">
				<use xlink:href="#SVGID_1_"  style="overflow:visible;"/>
			</clipPath>
			<g id="g3442" class="st0">
				<g id="g3448">
					<g id="g3450">
						
							<radialGradient id="path3462_1_" cx="231.3447" cy="93.0717" r="1" gradientTransform="matrix(453.8224 0 0 -539.6893 -104808.3359 50389.5)" gradientUnits="userSpaceOnUse">
							<stop  offset="0" style="stop-color:#AEB2D5"/>
							<stop  offset="0.3" style="stop-color:#AEB2D5"/>
							<stop  offset="0.75" style="stop-color:#484C89"/>
							<stop  offset="1" style="stop-color:#484C89"/>
						</radialGradient>
						<path id="path3462" class="st1" d="M15.04,47.53c0-95.52,123.79-172.96,276.48-172.96l0,0C444.21-125.43,568-47.99,568,47.53
							l0,0c0,95.52-123.79,172.96-276.48,172.96l0,0C138.83,220.49,15.04,143.05,15.04,47.53"/>
					</g>
				</g>
			</g>
		</g>
	</g>
	<g id="g3464">
		<g>
			<defs>
				<rect id="SVGID_3_" x="-68.48" y="-193.28" width="720" height="481.63"/>
			</defs>
			<clipPath id="SVGID_4_">
				<use xlink:href="#SVGID_3_"  style="overflow:visible;"/>
			</clipPath>
			<g id="g3466" class="st2">
				<g id="g3472" transform="translate(288,27.3594)">
					<path id="path3474" class="st3" d="M3.52-139.95c146.73,0,265.68,71.69,265.68,160.12c0,88.43-118.95,160.12-265.68,160.12
						S-262.16,108.6-262.16,20.17C-262.16-68.26-143.21-139.95,3.52-139.95"/>
				</g>
			</g>
		</g>
	</g>
	<g id="g3476">
		<g>
			<defs>
				<rect id="SVGID_5_" x="-68.48" y="-193.28" width="720" height="481.63"/>
			</defs>
			<clipPath id="SVGID_6_">
				<use xlink:href="#SVGID_5_"  style="overflow:visible;"/>
			</clipPath>
			<g id="g3478" class="st4">
				<g id="g3484" transform="translate(161.7344,145.3066)">
					<path id="path3486" d="M3.52-117.63c12.06,0,21.07,2.65,26.77,7.86c5.64,5.16,9.53,14.11,11.57,26.58
						c1.9,11.66,1.18,19.8-2.15,24.2c-3.41,4.49-10.77,6.76-21.89,6.76H-1.46l-10.69-65.41H3.52z M-59.54-198.2
						c-0.9,0-1.74,0.48-2.31,1.3c-0.57,0.82-0.8,1.9-0.63,2.95l28.33,173.33c0.27,1.68,1.51,2.89,2.94,2.89h61.05
						c19.19,0,33.47-6.2,42.45-18.42c9.03-12.29,11.81-29.46,8.28-51.04c-1.44-8.79-3.91-16.96-7.34-24.27
						c-3.44-7.32-7.98-14.09-13.51-20.13c-6.62-7.36-14.1-12.7-22.24-15.85c-8-3.1-18.28-4.67-30.55-4.67h-24.72l-7.06-43.19
						c-0.27-1.68-1.51-2.89-2.94-2.89H-59.54z"/>
				</g>
				<g id="g3488" transform="translate(159.2236,197.3071)">
					<path id="path3490" class="st5" d="M3.52-107.79h16.81c13.42,0,18.08-3.5,19.67-5.59c2.63-3.47,3.12-10.77,1.44-21.13
						c-1.9-11.59-5.42-19.82-10.46-24.43c-5.16-4.73-13.55-7.12-24.94-7.12H-6L3.52-107.79z M32.35-66.17H-28.7
						c-2.87,0-5.34-2.42-5.89-5.77l-28.33-173.33c-0.34-2.09,0.12-4.25,1.26-5.9c1.14-1.64,2.84-2.6,4.63-2.6h31.75
						c2.87,0,5.34,2.42,5.89,5.77l6.59,40.31H9.45c12.58,0,23.17,1.63,31.48,4.85c8.54,3.3,16.4,8.9,23.35,16.63
						c5.75,6.29,10.49,13.36,14.08,21c3.59,7.64,6.17,16.17,7.67,25.33c3.71,22.72,0.7,40.91-8.97,54.07
						C67.49-72.77,52.44-66.17,32.35-66.17 M-13.28-173.2H6.03c12.8,0,22.34,2.87,28.6,8.6c6.27,5.74,10.49,15.31,12.69,28.73
						c2.1,12.88,1.14,21.97-2.87,27.27c-4.02,5.3-12.06,7.94-24.12,7.94H-1.43L-13.28-173.2 M32.35-73.3
						c18.37,0,31.77-5.73,40.19-17.2c8.42-11.47,10.96-27.47,7.6-48.01c-1.38-8.46-3.72-16.2-7.01-23.21
						c-3.3-7.02-7.6-13.43-12.92-19.25c-6.34-7.06-13.38-12.08-21.13-15.08c-7.75-3-17.62-4.5-29.62-4.5h-27.2l-7.53-46.08h-31.75
						L-28.7-73.3H32.35"/>
				</g>
				<g id="g3492" transform="translate(311.583,116.3066)">
					<path id="path3494" d="M3.52-123.12c-0.9,0-1.74,0.48-2.31,1.3c-0.57,0.82-0.8,1.9-0.63,2.95l12.53,76.69
						c1.19,7.29,0.9,12.53-0.83,14.74c-1.06,1.35-4.23,3.62-13.61,3.62h-22.7l-15.76-96.41c-0.27-1.68-1.51-2.89-2.94-2.89h-31.5
						c-0.9,0-1.75,0.48-2.32,1.3c-0.57,0.82-0.8,1.9-0.63,2.95l28.33,173.33c0.27,1.68,1.51,2.89,2.94,2.89h31.5
						c0.9,0,1.75-0.48,2.32-1.3c0.57-0.82,0.8-1.9,0.63-2.95l-6.84-41.83H6.13c18.6,0,31.22-3.9,38.57-11.93
						c7.49-8.19,9.83-21.28,6.95-38.91l-13.18-80.66c-0.27-1.68-1.51-2.89-2.94-2.89H3.52z"/>
				</g>
				<g id="g3496" transform="translate(293.6611,271.0571)">
					<path id="path3498" class="st5" d="M3.52-93.84h-31.5c-2.87,0-5.34-2.42-5.89-5.77L-62.2-272.94c-0.34-2.09,0.12-4.25,1.26-5.9
						c1.14-1.64,2.84-2.6,4.63-2.6h31.5c2.87,0,5.34,2.42,5.89,5.77l15.28,93.53h20.23c9.36,0,11.33-2.38,11.41-2.48
						c0.57-0.73,1.32-4.09,0.08-11.63l-12.53-76.69c-0.34-2.09,0.12-4.25,1.26-5.9c1.14-1.64,2.84-2.6,4.63-2.6h32
						c2.87,0,5.34,2.42,5.89,5.77L72.51-195c3.09,18.93,0.45,33.14-7.86,42.22c-7.93,8.66-21.21,12.87-40.6,12.87H3.27l6.14,37.58
						c0.34,2.09-0.12,4.26-1.26,5.9C7.01-94.79,5.31-93.84,3.52-93.84 M3.52-100.97l-7.53-46.08h28.06
						c17.66,0,29.84-3.67,36.54-10.99c6.7-7.33,8.71-19.2,6.03-35.6L53.44-274.3h-32l12.53,76.69c1.43,8.72,0.9,14.67-1.57,17.85
						c-2.48,3.17-7.75,4.76-15.81,4.76H-8.58l-16.23-99.3h-31.5l28.33,173.33H3.52"/>
				</g>
				<g id="g3500" transform="translate(409.5498,145.3066)">
					<path id="path3502" d="M3.52-117.63c12.06,0,21.07,2.65,26.77,7.86c5.64,5.16,9.53,14.11,11.57,26.58
						c1.9,11.66,1.18,19.8-2.15,24.2c-3.41,4.49-10.77,6.76-21.89,6.76H-1.46l-10.69-65.41H3.52z M-59.54-198.2
						c-0.9,0-1.74,0.48-2.31,1.3c-0.57,0.82-0.8,1.9-0.63,2.95l28.33,173.33c0.28,1.68,1.51,2.89,2.95,2.89h61.05
						c19.19,0,33.47-6.2,42.45-18.42c9.03-12.28,11.81-29.46,8.28-51.04c-1.44-8.79-3.91-16.96-7.34-24.27
						c-3.44-7.32-7.98-14.09-13.51-20.13c-6.62-7.36-14.1-12.7-22.24-15.85c-8-3.1-18.28-4.67-30.55-4.67h-24.72l-7.06-43.19
						c-0.27-1.68-1.51-2.89-2.95-2.89H-59.54z"/>
				</g>
				<g id="g3504" transform="translate(407.0391,197.3071)">
					<path id="path3506" class="st5" d="M3.52-107.79h16.81c13.42,0,18.08-3.5,19.67-5.59c2.63-3.47,3.13-10.77,1.44-21.13
						c-1.9-11.6-5.42-19.82-10.46-24.43c-5.16-4.73-13.55-7.12-24.94-7.12H-6L3.52-107.79z M32.35-66.17H-28.7
						c-2.87,0-5.34-2.42-5.89-5.77l-28.33-173.33c-0.34-2.09,0.12-4.25,1.26-5.9c1.14-1.64,2.84-2.6,4.63-2.6h31.75
						c2.87,0,5.34,2.42,5.89,5.77l6.59,40.31H9.45c12.58,0,23.17,1.63,31.48,4.85c8.54,3.3,16.4,8.9,23.36,16.63
						c5.75,6.29,10.49,13.35,14.08,21c3.59,7.64,6.17,16.17,7.67,25.33c3.71,22.72,0.7,40.91-8.97,54.07
						C67.49-72.77,52.44-66.17,32.35-66.17 M-13.28-173.2H6.03c12.8,0,22.34,2.87,28.6,8.6c6.27,5.74,10.49,15.31,12.69,28.73
						c2.1,12.88,1.15,21.97-2.87,27.27c-4.02,5.3-12.06,7.94-24.12,7.94H-1.43L-13.28-173.2 M32.35-73.3
						c18.37,0,31.77-5.73,40.19-17.2s10.96-27.47,7.6-48.01c-1.38-8.46-3.72-16.2-7.01-23.21c-3.3-7.02-7.6-13.43-12.92-19.25
						c-6.34-7.06-13.38-12.08-21.13-15.08c-7.75-3-17.62-4.5-29.62-4.5h-27.2l-7.53-46.08h-31.75L-28.7-73.3H32.35"/>
				</g>
			</g>
		</g>
	</g>
</g>
</svg>
