<?xml version="1.0" encoding="utf-8"?>
<!-- Generator: Adobe Illustrator 24.3.0, SVG Export Plug-In . SVG Version: 6.00 Build 0)  -->
<svg version="1.1"
	 id="svg64" inkscape:version="0.92.2 2405546, 2018-03-11" sodipodi:docname="Javascript-shield.svg" xmlns:cc="http://creativecommons.org/ns#" xmlns:dc="http://purl.org/dc/elements/1.1/" xmlns:inkscape="http://www.inkscape.org/namespaces/inkscape" xmlns:rdf="http://www.w3.org/1999/02/22-rdf-syntax-ns#" xmlns:sodipodi="http://sodipodi.sourceforge.net/DTD/sodipodi-0.dtd" xmlns:svg="http://www.w3.org/2000/svg"
	 xmlns="http://www.w3.org/2000/svg" xmlns:xlink="http://www.w3.org/1999/xlink" x="0px" y="0px" viewBox="0 0 397.32 559.5"
	 style="enable-background:new 0 0 397.32 559.5;" xml:space="preserve">
<style type="text/css">
	.st0{fill:#FFFFFF;}
	.st1{fill:#EAEBEC;}
	.st2{fill:#F0BE25;}
	.st3{fill:#E4A126;}
	.st4{fill:#0E0E0F;}
</style>
<sodipodi:namedview  bordercolor="#666666" borderopacity="1" fit-margin-bottom="0" fit-margin-left="0" fit-margin-right="0" fit-margin-top="0" gridtolerance="10" guidetolerance="10" id="namedview66" inkscape:current-layer="svg64" inkscape:cx="364.99449" inkscape:cy="300.83113" inkscape:pageopacity="0" inkscape:pageshadow="2" inkscape:window-height="1016" inkscape:window-maximized="1" inkscape:window-width="1920" inkscape:window-x="0" inkscape:window-y="27" inkscape:zoom="1.0628712" objecttolerance="10" pagecolor="#ffffff" showgrid="false">
	</sodipodi:namedview>
<g>
	<path id="path118" inkscape:connector-curvature="0" class="st0" d="M29.2,172.89l0.05,4.29c0.03,2.36,6.87,80.56,15.21,173.76
		l15.15,169.47l68.1,19.07c37.45,10.49,68.87,19.12,69.82,19.19c0.94,0.07,32.78-8.48,70.74-18.99
		c60.86-16.85,69.08-19.39,69.52-21.48c0.61-2.91,30.41-339.14,30.38-342.74l-0.02-2.58H198.66H29.2z"/>
	
		<path id="path88" inkscape:connector-curvature="0" sodipodi:nodetypes="sccsssccsscsccccccccsscscssscsscccsccsscccc" class="st1" d="
		M128.24,540.63l-68.7-19.2l-0.9-5.08c-0.8-4.52-30.59-337.28-30.59-341.68c0-1.59,17.4-1.77,170.62-1.77
		c161.73,0,170.61,0.1,170.6,2c-0.05,8.2-30.89,345.37-31.65,346.05c-0.96,0.85-133.94,37.9-138.38,38.55
		C197.98,559.68,166.03,551.19,128.24,540.63L128.24,540.63z M241.99,472.77c23.09-6.37,42.32-11.91,42.73-12.31s3.11-27.78,6-60.85
		s5.56-62.31,5.91-64.98l0.65-4.87H247.4h-49.88v21.18v21.18h26.93h26.93l-0.54,2.58c-0.29,1.42-1.44,13.59-2.55,27.06
		c-1.17,14.27-2.56,25.03-3.33,25.8c-0.73,0.73-11.7,4.09-24.39,7.47l-23.07,6.15v21.58c0,14.73,0.39,21.58,1.24,21.58
		C199.44,484.35,218.9,479.14,241.99,472.77L241.99,472.77z M296.63,303.15c-0.76-5.61-7.5-80.87-7.5-83.7
		c0-1.72-3.96-1.89-45.23-1.89h-45.23v22.15v22.15l20.32,0.78c11.18,0.43,22.94,1.09,26.14,1.46l5.82,0.67l1.41,17.33
		c0.78,9.53,1.7,19.26,2.06,21.62l0.64,4.29h21.11h21.11L296.63,303.15z"/>
	
		<path id="path80" inkscape:connector-curvature="0" sodipodi:nodetypes="ccsccccccscccccscscsccsssccscscssccccsccscsscccccccc" class="st2" d="
		M127.7,539.49l-68.1-19.07L44.45,350.95c-8.33-93.21-15.18-171.4-15.21-173.76l-0.05-4.29h169.47h169.47l0.02,2.58
		c0.03,3.6-29.78,339.83-30.38,342.74c-0.44,2.09-8.65,4.62-69.52,21.48c-37.96,10.51-69.79,19.06-70.74,18.99
		C196.58,558.61,165.16,549.98,127.7,539.49L127.7,539.49z M242.04,473.58c23.54-6.54,43.14-12.44,43.54-13.1s3.22-29.44,6.25-63.95
		s5.76-63.65,6.06-64.76c0.52-1.89-3.48-2-72.58-2h-73.13l3.11-32.92c1.71-18.11,3.15-32.97,3.21-33.02
		c0.05-0.06,10.78-0.4,23.85-0.76c21.43-0.59,65.62,1.12,67.09,2.6c0.55,0.55,4.19,36.2,4.19,41.06c0,2.4,0.32,2.43,22.19,2.43
		h22.19l-0.52-4.87c-0.29-2.68-2.17-23.42-4.18-46.09l-3.65-41.22l-85.57-0.29c-68.08-0.23-85.57,0-85.58,1.15
		c-0.01,0.79-0.5,5.82-1.11,11.17c-1.46,12.95-12.62,138.11-12.62,141.57v2.71h72.81h72.81l-0.65,4.29
		c-0.36,2.36-1.49,14.34-2.52,26.62c-1.03,12.28-2.2,22.65-2.6,23.03c-1.07,1.02-43.9,12.47-46.57,12.44
		c-1.24-0.01-12.3-2.77-24.58-6.13l-22.33-6.11l-0.82-9.61c-0.45-5.29-1.14-12.83-1.52-16.77l-0.7-7.16h-21.67h-21.67l0.05,4.29
		c0.09,8.03,5.3,62.12,6.05,62.88c0.87,0.87,84.09,24.27,86.65,24.36C198.47,485.46,218.5,480.13,242.04,473.58L242.04,473.58z"/>
	
		<path id="path78" inkscape:connector-curvature="0" sodipodi:nodetypes="ccsccccccscccscccccccscsscccscscsscccccscsssscscccccs" class="st3" d="
		M127.7,539.49l-68.1-19.07L44.45,350.95c-8.33-93.21-15.18-171.4-15.21-173.76l-0.05-4.29h169.47h169.47l0.02,2.58
		c0.03,3.6-29.78,339.83-30.38,342.74c-0.44,2.09-8.65,4.62-69.52,21.48c-37.96,10.51-69.79,19.06-70.74,18.99
		C196.58,558.61,165.16,549.98,127.7,539.49L127.7,539.49z M254.7,513.98c29.96-8.27,55.03-15.61,55.72-16.32
		c1.07-1.1,26.94-284.65,26.84-294.14l-0.03-3.15h-69.28h-69.28v8.02v8.02h-40.08c-31.29,0-40.08,0.31-40.09,1.43
		c-0.01,0.79-0.5,5.81-1.11,11.16c-1.46,12.95-12.62,138.11-12.62,141.57v2.71h46.95h46.95v33.21c0,25.81-0.32,33.2-1.43,33.19
		c-0.79-0.01-11.48-2.77-23.76-6.13l-22.33-6.11l-0.82-9.61c-0.45-5.29-1.14-12.83-1.52-16.77l-0.7-7.16h-21.67h-21.67l0.05,4.29
		c0.14,12.28,5.45,62.42,6.7,63.19c0.76,0.47,20.68,6.19,44.26,12.72l42.89,11.87v21.53c0,11.84,0.35,21.53,0.78,21.53
		C199.88,529.01,224.74,522.25,254.7,513.98L254.7,513.98z M155.17,297.16c1.65-17.94,3.22-32.82,3.49-33.06
		c0.27-0.25,9.39-0.7,20.25-1l19.75-0.55v33.61v33.61h-23.24h-23.24L155.17,297.16z"/>
	<path id="path76" inkscape:connector-curvature="0" class="st4" d="M136.83,132.25v-10.88h15.46h15.46v-21.18V79h10.88h10.88v32.06
		v32.06h-26.34h-26.34V132.25z M199.81,134.54v-8.59h14.31c7.87,0,14.31-0.29,14.31-0.65s-6.44-7.63-14.31-16.16l-14.31-15.51v-7.31
		V79h29.77h29.77v8.55v8.55l-13.98,0.32l-13.98,0.32l14.55,15.67l14.55,15.67v7.52v7.52h-30.34h-30.34V134.54z"/>
</g>
</svg>
