<?xml version="1.0" encoding="utf-8"?>
<!-- Generator: Adobe Illustrator 24.3.0, SVG Export Plug-In . SVG Version: 6.00 Build 0)  -->
<svg version="1.1" id="Layer_1" xmlns="http://www.w3.org/2000/svg" xmlns:xlink="http://www.w3.org/1999/xlink" x="0px" y="0px"
	 viewBox="0 0 362.8 512" style="enable-background:new 0 0 362.8 512;" xml:space="preserve">
<style type="text/css">
	.st0{fill:#E44D26;}
	.st1{fill:#F16529;}
	.st2{fill:#EBEBEB;}
	.st3{fill:#FFFFFF;}
</style>
<g>
	<path d="M41.4,57.5h21.8v21.6h20.1V57.5h21.8V123H83.3v-21.8H63.4V123h-22 M134,79.3h-19.3V57.5h60.4v21.8h-19.4V123H134
		 M184.7,57.5h22.9l14,23l14-23h22.9V123h-21.8V90.5L221.4,114l-15.3-23.5V123h-21.4 M269.3,57.5h21.8v43.8h30.9V123h-52.7"/>
	<path class="st0" d="M40.6,498.6L9.3,147.2h344.2l-31.3,351.2l-141.1,39.1"/>
	<path class="st1" d="M181.4,507.6V176.1h140.7l-26.8,299.8"/>
	<path class="st2" d="M73.3,219h108.1v43.1h-60.9l4,44.1h56.9v43H85 M86.9,370.8h43.3l3,34.4l48.2,12.9v45L93,438.5"/>
	<path class="st3" d="M289.2,219H181.2v43.1h104 M281.3,306.2H181.2v43.1h53.1l-5,56l-48.1,12.9v44.8l88.2-24.5"/>
</g>
</svg>
