 <svg version="1.0" xmlns="http://www.w3.org/2000/svg" width="700.000000pt" height="998.000000pt" viewBox="0 0 700.000000 998.000000" preserveAspectRatio="xMidYMid meet">
    <g transform="translate(0.000000,998.000000) scale(0.100000,-0.100000)" fill="#000000" stroke="none">
        <path d="M3425 9940 c-147 -6 -217 -14 -310 -34 -66 -14 -132 -26 -148 -26
        -16 0 -63 -16 -105 -36 -69 -33 -84 -36 -156 -35 -94 1 -151 -14 -240 -64 -34
        -19 -69 -35 -77 -35 -12 0 -131 -53 -305 -136 -39 -18 -93 -51 -120 -72 -27
        -22 -92 -65 -144 -96 -121 -73 -237 -162 -321 -246 -83 -84 -107 -117 -159
        -215 -23 -44 -46 -85 -50 -90 -5 -6 -14 -33 -21 -60 -6 -28 -16 -55 -21 -61
        -4 -6 -20 -44 -34 -85 -14 -40 -39 -90 -55 -110 -16 -20 -29 -40 -29 -45 0
        -17 62 53 90 102 25 45 32 51 55 46 18 -3 36 3 55 17 22 16 34 19 53 12 13 -5
        44 -9 69 -9 39 0 44 2 44 21 -1 21 3 22 86 22 103 0 119 9 84 50 -38 45 -14
        59 55 32 19 -7 57 -12 84 -10 78 5 77 5 123 -8 36 -11 44 -11 51 0 6 9 18 11
        35 7 28 -7 34 2 14 22 -9 9 -9 15 0 24 9 9 20 8 47 -5 39 -19 41 -29 16 -72
        -14 -23 -25 -30 -48 -30 -27 0 -29 -2 -23 -24 4 -16 16 -28 34 -32 30 -8 42 2
        163 143 23 26 57 61 76 78 20 17 41 47 47 66 10 30 16 35 34 29 48 -14 51 -12
        56 41 3 28 10 58 16 65 6 8 17 31 23 52 14 41 25 45 59 21 13 -9 34 -14 47
        -11 16 2 31 -3 41 -14 16 -18 15 -21 -6 -62 -18 -33 -21 -50 -15 -73 5 -16 7
        -37 6 -46 -3 -25 26 -76 51 -89 18 -10 24 -8 39 10 22 27 33 27 47 -4 11 -23
        27 -34 76 -49 15 -5 16 -9 6 -21 -15 -18 14 -70 59 -103 36 -26 47 -27 111 -6
        46 15 51 15 87 -2 33 -17 38 -23 35 -50 -4 -45 18 -63 68 -57 28 4 56 -1 94
        -17 49 -20 62 -21 128 -12 58 8 77 7 95 -4 30 -19 70 -18 82 3 9 16 13 16 58
        -5 61 -28 127 -42 144 -31 25 15 56 9 71 -13 12 -17 26 -23 59 -24 143 -5 234
        -25 308 -68 28 -16 38 -18 65 -8 61 22 112 15 189 -27 78 -42 200 -75 282 -74
        76 0 216 14 253 25 31 9 36 7 86 -40 29 -27 70 -59 92 -70 50 -25 70 -49 79
        -91 4 -21 24 -50 50 -76 50 -49 90 -150 98 -253 3 -34 10 -68 15 -75 6 -7 20
        -38 32 -69 11 -31 40 -79 64 -105 54 -60 61 -74 96 -184 28 -87 29 -90 13
        -141 -8 -29 -26 -75 -40 -101 -13 -27 -31 -82 -39 -123 -7 -41 -24 -95 -38
        -122 -13 -26 -27 -63 -31 -82 -4 -19 -25 -86 -46 -149 -21 -62 -42 -143 -45
        -180 -4 -36 -17 -92 -30 -123 -22 -51 -23 -68 -20 -185 4 -126 22 -227 52
        -284 7 -15 35 -40 61 -57 86 -53 115 -93 147 -201 25 -84 19 -227 -17 -387
        -17 -74 -22 -151 -37 -564 -13 -330 -23 -430 -60 -576 -26 -103 -37 -129 -81
        -193 -28 -41 -62 -105 -75 -143 -13 -38 -46 -106 -73 -151 -46 -75 -66 -126
        -156 -392 -15 -44 -42 -143 -61 -219 -19 -76 -43 -154 -55 -172 -28 -46 -92
        -94 -142 -108 -44 -12 -147 -69 -260 -144 -56 -38 -75 -45 -108 -43 -62 3
        -130 -24 -174 -69 -31 -32 -46 -40 -75 -40 -23 0 -53 -11 -83 -30 -26 -17 -56
        -30 -67 -30 -35 0 -70 -23 -76 -49 -3 -14 -10 -37 -15 -51 -5 -14 -8 -36 -7
        -50 2 -18 -4 -28 -28 -40 -17 -8 -39 -23 -48 -33 -10 -9 -24 -17 -31 -17 -20
        0 -35 -33 -35 -77 0 -34 -4 -40 -30 -50 -18 -7 -30 -19 -30 -30 -1 -24 -18
        -45 -55 -68 -113 -71 -147 -123 -138 -211 5 -47 1 -62 -32 -129 -32 -66 -40
        -75 -63 -74 -59 2 -76 13 -84 54 -11 56 -38 125 -49 125 -4 0 -8 -15 -7 -32 4
        -65 -3 -103 -21 -127 -15 -20 -21 -22 -39 -12 -12 6 -25 24 -28 39 -4 15 -13
        36 -20 47 -8 11 -14 30 -14 42 0 16 -8 25 -25 29 -21 5 -25 12 -25 44 0 38
        -21 67 -40 55 -5 -3 -10 -27 -10 -53 0 -35 -10 -67 -40 -126 -22 -43 -44 -84
        -49 -90 -6 -6 -13 -36 -17 -66 -5 -43 -13 -61 -36 -82 -25 -24 -28 -33 -23
        -62 6 -32 6 -33 -19 -29 -24 5 -26 3 -26 -31 0 -31 -3 -36 -22 -36 -13 0 -32
        -7 -42 -15 -11 -8 -27 -15 -36 -15 -9 0 -34 -16 -55 -36 -32 -29 -43 -34 -55
        -25 -8 6 -30 18 -48 27 -31 14 -37 13 -75 -4 -23 -11 -50 -22 -59 -25 -10 -4
        -18 -11 -18 -17 0 -5 -7 -10 -15 -10 -8 0 -22 -12 -32 -26 -14 -21 -14 -30 -4
        -46 12 -19 7 -52 -12 -76 -13 -16 -27 2 -27 36 0 41 -41 24 -69 -28 -30 -55
        -78 -97 -93 -82 -7 7 -17 8 -28 2 -20 -11 -60 -74 -60 -95 0 -7 -13 -23 -29
        -34 -16 -12 -35 -37 -41 -56 -6 -19 -25 -44 -41 -56 l-30 -21 -23 21 -22 21
        -38 -40 c-32 -34 -40 -38 -56 -28 -16 10 -25 8 -51 -11 -36 -26 -42 -22 -59
        41 -6 20 -14 39 -18 42 -15 9 -33 -11 -47 -50 -15 -45 -32 -55 -37 -22 -2 14
        -12 24 -28 28 -19 4 -26 14 -30 40 l-5 34 -37 -37 c-41 -41 -52 -46 -44 -19 2
        9 7 52 11 95 6 64 4 77 -8 77 -8 0 -20 -14 -27 -31 -10 -24 -17 -29 -34 -24
        -39 11 -71 13 -88 4 -13 -7 -23 -3 -42 16 -14 14 -32 25 -40 25 -8 0 -23 12
        -35 27 -16 23 -23 26 -38 17 -9 -6 -23 -31 -29 -55 l-11 -44 -12 28 c-6 16
        -11 34 -11 41 0 19 -27 39 -44 33 -9 -4 -16 -34 -20 -97 l-8 -92 -22 21 c-20
        19 -22 26 -13 74 13 77 20 185 13 213 -7 28 -37 32 -56 9 -24 -29 -33 2 -35
        119 -3 124 -14 159 -58 175 -20 8 -39 59 -54 148 -4 23 -12 34 -31 41 -24 8
        -25 12 -28 87 -1 44 -3 83 -3 88 -2 15 -21 6 -46 -20 l-25 -28 0 25 c1 14 7
        43 15 65 17 47 19 107 4 122 -7 7 -4 21 10 47 12 20 21 43 21 52 0 22 -30 64
        -46 64 -18 0 -18 3 6 50 25 48 14 50 -45 10 -65 -45 -71 -36 -15 22 47 50 62
        82 40 90 -6 2 -6 26 0 66 8 56 6 66 -10 82 -10 10 -24 37 -31 60 -10 34 -10
        46 4 74 16 35 9 56 -20 56 -7 0 -26 28 -41 62 -16 35 -36 69 -45 77 -9 7 -17
        22 -17 33 0 10 -9 37 -21 60 -12 23 -29 66 -39 97 -18 53 -18 55 0 68 11 8 16
        20 13 33 -3 11 -1 20 3 20 27 1 71 70 44 70 -16 0 -70 -42 -65 -51 3 -4 -2 -9
        -10 -13 -19 -7 -45 20 -45 48 0 13 -9 31 -20 41 -16 15 -20 29 -18 69 3 44 7
        52 31 64 16 8 27 21 27 33 0 25 -12 24 -36 -2 -10 -12 -35 -28 -56 -36 -23 -9
        -38 -23 -42 -39 -7 -27 -21 -31 -30 -9 -3 8 -10 15 -16 15 -15 0 -12 -36 5
        -50 8 -7 15 -27 15 -44 0 -17 6 -40 14 -51 7 -11 16 -33 19 -50 3 -16 13 -57
        22 -90 10 -33 19 -76 22 -95 3 -19 13 -44 22 -55 50 -58 100 -204 107 -312 11
        -166 10 -181 -19 -211 -29 -31 -35 -63 -14 -81 17 -14 27 -4 27 25 0 13 4 26
        10 29 6 4 10 -6 10 -24 0 -16 10 -47 22 -67 18 -31 22 -52 21 -121 -1 -71 1
        -83 14 -79 11 5 13 2 9 -10 -3 -8 -6 -26 -6 -39 0 -13 -7 -30 -15 -39 -8 -8
        -15 -19 -15 -25 0 -6 7 -8 15 -5 9 4 15 0 16 -7 1 -8 2 -33 3 -57 2 -48 21
        -76 36 -52 15 24 24 3 12 -27 -7 -15 -13 -52 -14 -82 -3 -48 0 -56 19 -66 25
        -13 79 -82 93 -121 5 -13 12 -102 15 -196 3 -94 9 -176 14 -182 4 -6 11 -23
        15 -38 7 -29 20 -36 31 -18 11 17 35 -9 35 -37 0 -29 41 -73 69 -73 11 0 44
        -23 74 -50 30 -28 58 -50 63 -50 4 0 18 -10 30 -21 13 -12 33 -27 46 -33 12
        -6 39 -42 58 -80 38 -72 66 -94 100 -76 24 13 81 13 116 0 15 -6 48 -11 73
        -12 25 -1 51 -5 56 -9 6 -3 24 -10 42 -14 22 -4 46 -23 73 -55 23 -27 45 -49
        48 -48 4 2 25 -14 47 -35 22 -20 60 -45 85 -54 25 -9 50 -21 57 -26 7 -5 27
        -5 45 -1 18 4 38 6 43 5 23 -7 167 -2 197 7 18 6 58 16 88 22 30 7 82 21 114
        33 57 20 61 20 123 4 77 -20 208 -84 286 -139 28 -20 57 -19 57 2 0 20 -20 50
        -34 50 -21 0 -92 67 -105 99 -27 64 4 101 85 101 34 0 59 11 132 59 178 117
        391 202 459 185 27 -7 116 75 165 153 80 126 270 261 381 270 48 4 94 19 139
        43 10 6 33 10 52 10 37 0 137 42 156 65 13 15 100 45 148 50 15 1 33 12 40 24
        8 11 20 21 26 21 6 0 22 9 36 20 14 11 37 20 51 20 15 0 47 18 80 44 82 68 90
        77 144 165 93 152 110 175 154 209 35 26 51 32 73 28 23 -4 32 0 53 28 14 18
        25 38 25 44 0 16 59 62 81 62 10 0 19 7 19 15 0 8 6 12 14 9 29 -11 83 91 89
        171 9 101 117 380 173 448 13 16 27 41 30 55 4 15 19 52 34 82 79 160 100 254
        86 403 -4 48 -1 87 10 130 22 87 63 175 85 182 10 4 44 1 76 -4 130 -25 263
        -10 373 41 25 11 59 27 75 34 91 38 175 163 175 258 0 55 13 104 42 156 11 19
        31 60 44 90 14 30 39 82 55 115 15 33 31 72 35 88 3 15 10 30 15 33 11 7 12
        54 1 54 -5 0 -19 -26 -32 -57 -40 -101 -126 -290 -154 -343 -8 -14 -19 -61
        -26 -105 -14 -92 -51 -175 -95 -212 -27 -24 -158 -89 -210 -106 -16 -5 -15 -3
        5 11 92 64 105 102 45 128 -19 7 -43 14 -54 14 -26 0 -37 22 -44 88 -4 30 -22
        86 -42 127 -19 40 -35 84 -35 97 0 27 24 107 41 140 35 65 123 168 183 213 82
        61 126 123 126 177 0 52 -17 56 -91 24 -101 -46 -135 -25 -106 67 21 65 56
        107 91 107 16 0 42 -14 66 -36 21 -20 47 -34 57 -32 57 11 79 172 35 256 -13
        24 -43 63 -68 86 -65 63 -59 89 35 136 50 25 101 76 137 138 46 76 78 47 94
        -83 4 -38 17 -96 28 -127 29 -80 35 -149 23 -260 -9 -89 -15 -108 -70 -220
        -43 -88 -78 -143 -122 -193 -65 -72 -119 -171 -119 -216 0 -15 9 -37 19 -50
        l19 -24 32 30 c17 17 39 39 48 49 9 10 27 28 40 39 12 11 22 25 22 30 0 5 17
        46 38 90 62 130 81 186 107 310 14 63 34 138 45 166 15 40 19 70 17 137 -2 79
        0 87 22 105 15 12 39 19 67 19 40 0 45 3 62 38 11 20 22 64 25 96 6 62 22 92
        33 63 14 -37 24 -13 24 59 0 66 -2 76 -19 81 -16 4 -18 11 -14 39 6 34 -11 69
        -28 58 -5 -3 -30 2 -55 12 -25 9 -71 18 -102 18 -48 1 -68 -5 -127 -38 -145
        -82 -256 -136 -275 -136 -33 0 -26 45 12 77 35 30 203 199 256 258 17 19 32
        45 32 57 0 36 42 202 56 223 8 11 14 29 14 40 0 12 5 26 11 32 8 8 8 21 -1 47
        -9 28 -9 40 0 51 8 10 9 19 0 35 -6 12 -8 26 -3 33 5 7 7 37 5 67 -3 48 -4 90
        -3 145 0 8 0 27 0 43 1 129 14 348 26 442 9 63 20 147 25 185 5 39 12 97 15
        130 4 33 11 74 16 91 5 18 12 60 14 95 2 35 8 102 13 149 5 47 6 94 2 105 -4
        11 -10 56 -14 100 -11 123 -24 189 -67 325 -22 69 -47 148 -56 175 -18 57
        -112 232 -155 287 -15 20 -35 53 -44 73 -22 55 -62 113 -119 177 -27 31 -72
        84 -99 118 -27 34 -72 80 -100 102 -28 22 -89 77 -136 122 -142 138 -265 237
        -360 290 -37 19 -102 60 -145 91 -44 30 -111 73 -150 96 -188 112 -303 177
        -335 189 -19 8 -80 37 -135 66 -97 51 -323 134 -364 134 -10 0 -82 18 -158 41
        l-138 41 -280 9 c-154 4 -291 10 -305 12 -14 2 -110 1 -215 -3z m-1146 -879
        c43 -38 48 -61 12 -61 -22 0 -81 69 -81 95 0 15 30 0 69 -34z m629 -129 c4
        -27 -14 -29 -28 -3 -14 27 -13 33 8 29 9 -2 18 -13 20 -26z m-727 -15 c-1 -4
        -1 -16 -1 -27 0 -21 -24 -28 -35 -10 -8 13 14 52 26 48 6 -2 10 -7 10 -11z
        m737 -127 c-3 -34 -16 -38 -48 -12 -29 23 -19 42 21 42 26 0 29 -3 27 -30z
        m3068 -4437 c17 -142 5 -263 -26 -263 -4 0 -8 30 -9 68 -1 37 -6 85 -11 107
        -11 46 -13 155 -3 181 12 32 39 -19 49 -93z m-5366 -2442 c0 -6 -4 -13 -10
        -16 -5 -3 -10 1 -10 9 0 9 5 16 10 16 6 0 10 -4 10 -9z m-9 -98 c-10 -17 -10
        -16 -11 3 0 23 13 41 18 25 2 -6 -1 -18 -7 -28z m279 -697 c0 -26 -15 -43 -24
        -28 -7 12 4 52 15 52 5 0 9 -11 9 -24z"></path>
        <path d="M2455 8960 c-4 -6 6 -23 22 -38 15 -15 39 -42 52 -60 24 -32 51 -43
        51 -20 0 38 -110 142 -125 118z"></path>
        <path d="M2388 8903 c-23 -6 -24 -33 -2 -33 9 0 34 -16 55 -35 39 -35 75 -47
        67 -22 -3 6 -20 22 -39 35 -19 13 -38 32 -43 43 -5 10 -12 18 -15 18 -3 -1
        -14 -3 -23 -6z"></path>
        <path d="M2658 8834 c-5 -4 -8 -16 -8 -28 0 -14 3 -17 11 -9 6 6 9 19 7 28 -1
        9 -6 13 -10 9z"></path>
        <path d="M2292 8779 c2 -6 8 -10 13 -10 5 0 11 4 13 10 2 6 -4 11 -13 11 -9 0
        -15 -5 -13 -11z"></path>
        <path d="M1830 8710 c0 -5 5 -10 10 -10 6 0 10 5 10 10 0 6 -4 10 -10 10 -5 0
        -10 -4 -10 -10z"></path>
        <path d="M2444 8679 c-9 -16 12 -33 31 -25 14 5 15 9 5 21 -15 18 -26 19 -36
        4z"></path>
        <path d="M2312 8551 c4 -13 18 -16 19 -4 0 4 -5 9 -11 12 -7 2 -11 -2 -8 -8z"></path>
        <path d="M1036 8410 c-27 -41 -63 -91 -81 -110 -55 -58 -143 -203 -156 -256
        -7 -27 -18 -58 -26 -69 -7 -11 -13 -26 -13 -33 0 -35 32 15 52 82 23 75 110
        218 178 292 21 23 46 57 55 75 10 19 24 42 32 51 8 9 13 23 11 30 -3 7 -26
        -21 -52 -62z"></path>
        <path d="M737 7902 c-18 -19 -23 -42 -9 -42 4 0 13 14 19 30 13 35 12 36 -10
        12z"></path>
        <path d="M710 7830 c0 -5 5 -10 10 -10 6 0 10 5 10 10 0 6 -4 10 -10 10 -5 0
        -10 -4 -10 -10z"></path>
        <path d="M700 7789 c0 -6 -16 -42 -35 -80 -19 -39 -40 -91 -47 -117 -6 -26
        -24 -74 -39 -107 -29 -63 -49 -219 -26 -196 6 6 13 44 15 83 3 54 10 81 28
        108 12 19 30 64 39 100 9 36 29 90 44 120 36 71 45 100 32 100 -6 0 -11 -5
        -11 -11z"></path>
        <path d="M470 7025 c0 -19 5 -35 10 -35 6 0 10 16 10 35 0 19 -4 35 -10 35 -5
        0 -10 -16 -10 -35z"></path>
        <path d="M460 6946 c0 -14 -4 -36 -10 -51 -5 -14 -17 -78 -25 -143 -13 -95
        -22 -130 -52 -190 -42 -85 -39 -107 5 -30 41 72 58 129 66 218 4 41 14 97 22
        124 16 58 18 96 4 96 -5 0 -10 -11 -10 -24z"></path>
        <path d="M300 6400 c0 -5 5 -10 10 -10 6 0 10 5 10 10 0 6 -4 10 -10 10 -5 0
        -10 -4 -10 -10z"></path>
        <path d="M285 6323 c-4 -16 -13 -40 -21 -55 -8 -14 -14 -33 -14 -41 0 -8 -9
        -25 -19 -39 -11 -13 -23 -38 -27 -54 -6 -24 -5 -27 7 -19 8 6 1 -2 -15 -16
        -33 -29 -35 -51 -17 -156 20 -114 111 -279 194 -347 34 -28 39 -37 33 -60 -4
        -15 -15 -34 -26 -44 -32 -27 -25 -42 20 -42 36 0 42 -4 56 -33 9 -18 29 -40
        45 -49 16 -10 29 -25 29 -37 0 -26 10 -51 21 -51 13 0 11 31 -6 96 -15 56 -14
        58 8 82 30 33 86 54 122 48 17 -3 48 1 70 9 48 17 115 19 115 4 0 -6 -16 -29
        -35 -52 -49 -57 -62 -104 -47 -169 13 -53 69 -141 100 -153 28 -12 173 -35
        224 -35 45 0 48 2 117 77 63 68 74 76 90 66 10 -7 28 -9 39 -7 22 6 64 -41 83
        -94 11 -32 39 -45 39 -18 0 46 -121 195 -188 230 -15 8 -58 46 -96 85 -38 39
        -75 71 -83 71 -18 0 -47 71 -35 90 8 14 5 31 -22 105 -6 17 -9 37 -8 46 2 9
        -19 64 -46 122 -70 149 -152 231 -277 278 -47 17 -59 18 -121 7 -38 -6 -123
        -12 -189 -13 -66 0 -125 -4 -132 -8 -6 -4 -13 -1 -16 5 -5 16 21 96 34 104 5
        3 9 15 9 28 0 12 5 27 11 33 6 6 8 16 5 22 -12 19 -25 12 -31 -16z m210 -415
        c54 -11 133 -54 235 -129 36 -26 85 -57 110 -70 25 -12 55 -34 67 -48 25 -29
        30 -47 11 -34 -7 4 -68 10 -136 13 -68 4 -127 11 -130 17 -4 5 -39 13 -79 17
        -76 7 -125 -5 -152 -37 -21 -26 -43 -20 -76 20 -44 54 -64 89 -81 141 -14 41
        -14 46 0 54 9 5 16 18 16 29 0 18 5 19 48 13 40 -5 50 -3 66 15 12 13 26 19
        35 16 9 -4 38 -11 66 -17z m56 -278 c-13 -11 -28 -20 -33 -20 -6 0 0 9 13 20
        13 10 29 19 34 19 6 0 -1 -9 -14 -19z m-56 -30 c-3 -5 -12 -10 -18 -10 -7 0
        -6 4 3 10 19 12 23 12 15 0z m498 -231 c16 -44 27 -83 24 -85 -10 -10 -87 129
        -87 157 0 5 8 9 18 9 13 0 25 -21 45 -81z"></path>
        <path d="M2568 5834 c-39 -47 -49 -92 -28 -124 17 -25 46 20 53 81 4 29 11 57
        17 63 5 5 10 14 10 18 0 17 -16 5 -52 -38z"></path>
        <path d="M2760 5870 c0 -5 5 -10 10 -10 6 0 10 5 10 10 0 6 -4 10 -10 10 -5 0
        -10 -4 -10 -10z"></path>
        <path d="M2425 5858 c-27 -89 -42 -208 -25 -208 5 0 10 9 10 20 0 11 7 23 15
        26 10 4 15 20 15 46 0 30 6 45 27 64 l28 26 -24 19 c-27 22 -40 24 -46 7z"></path>
        <path d="M2868 5843 c-22 -9 -45 -28 -57 -48 -14 -25 -31 -37 -63 -46 -48 -14
        -126 -63 -135 -85 -7 -19 -33 -18 -49 4 -13 16 -15 16 -29 -2 -9 -11 -15 -40
        -15 -68 0 -60 28 -84 88 -73 33 5 45 1 88 -28 45 -31 56 -34 151 -40 125 -8
        358 19 408 47 11 6 70 11 135 11 63 1 147 5 185 9 64 7 78 5 156 -22 77 -27
        92 -29 133 -20 58 12 93 4 101 -23 8 -24 61 -59 90 -59 37 0 110 -34 146 -67
        47 -45 87 -128 73 -151 -17 -26 -56 -25 -146 3 -46 15 -118 30 -160 35 -43 5
        -94 13 -115 19 -21 5 -111 15 -201 21 -89 6 -193 13 -230 16 -182 15 -315 11
        -407 -12 -116 -30 -219 -83 -294 -150 -78 -71 -96 -117 -88 -218 4 -47 3 -76
        -4 -83 -14 -14 -4 -32 19 -32 9 -1 47 -4 84 -7 37 -4 75 -4 83 0 14 5 14 8 -1
        31 -20 31 -14 37 46 54 57 16 107 40 140 67 14 12 54 34 90 48 36 15 73 31 82
        36 10 6 27 10 38 10 12 0 34 7 50 15 28 14 30 14 54 -11 l24 -27 11 22 c12 21
        61 30 61 11 0 -5 -16 -34 -35 -64 -19 -30 -37 -72 -41 -94 -8 -52 16 -135 56
        -189 35 -47 42 -50 191 -68 50 -7 166 9 242 31 12 4 17 0 17 -14 0 -10 11 -31
        25 -46 21 -22 32 -26 82 -26 32 0 80 7 107 15 79 24 110 20 150 -20 20 -19 41
        -35 49 -35 18 0 146 44 183 63 16 8 62 42 102 76 40 34 76 61 80 61 5 0 37 25
        72 55 83 71 130 93 232 111 91 16 149 45 196 99 51 58 51 76 -3 156 -26 39
        -54 89 -63 112 -9 23 -21 49 -27 57 -7 8 -15 37 -19 64 -11 91 -37 117 -128
        131 -27 4 -51 20 -92 60 -52 51 -86 69 -86 45 0 -25 -47 -3 -172 81 -107 72
        -120 79 -158 79 -35 0 -67 14 -93 41 -19 20 -44 24 -66 10 -7 -5 -25 -5 -40
        -1 -57 16 -90 -22 -54 -62 9 -10 14 -21 10 -24 -8 -8 -43 12 -105 59 -42 32
        -60 39 -95 39 -51 0 -104 -10 -135 -25 -17 -8 -32 -8 -60 3 -20 7 -74 14 -119
        15 -74 2 -83 0 -89 -18 -5 -15 -12 -18 -37 -12 -18 3 -50 8 -72 11 -22 3 -49
        9 -60 14 -75 33 -422 49 -487 23z m793 -684 c74 -23 98 -35 102 -50 8 -30 -16
        -34 -94 -15 -41 10 -84 14 -104 10 -18 -3 -49 0 -68 7 -28 10 -61 10 -158 1
        -68 -6 -139 -14 -156 -18 -49 -9 -40 8 20 37 68 34 133 49 182 43 25 -4 53 0
        75 10 42 19 72 15 201 -25z m799 16 c-7 -8 -17 -15 -22 -15 -6 0 -5 7 2 15 7
        8 17 15 22 15 6 0 5 -7 -2 -15z m-940 -214 c0 -11 11 -41 25 -67 26 -49 31
        -74 16 -74 -12 0 -51 54 -51 70 0 6 -7 24 -15 41 -9 16 -13 34 -10 39 11 17
        35 11 35 -9z"></path>
        <path d="M2320 5750 c0 -16 5 -30 10 -30 6 0 10 14 10 30 0 17 -4 30 -10 30
        -5 0 -10 -13 -10 -30z"></path>
        <path d="M6626 5561 c-8 -12 3 -41 15 -41 12 0 12 37 0 45 -5 3 -12 1 -15 -4z"></path>
        <path d="M6680 5451 c0 -13 26 -32 33 -24 8 7 -11 33 -24 33 -5 0 -9 -4 -9 -9z"></path>
        <path d="M360 5354 c0 -14 5 -24 11 -22 6 2 10 7 10 11 -1 4 -1 14 -1 22 0 8
        -4 15 -10 15 -5 0 -10 -12 -10 -26z"></path>
        <path d="M444 5276 c-4 -10 -2 -22 4 -28 8 -8 13 -7 18 6 4 10 2 22 -4 28 -8
        8 -13 7 -18 -6z"></path>
        <path d="M317 5251 c-18 -31 -22 -51 -9 -51 8 0 42 57 42 71 0 18 -16 8 -33
        -20z"></path>
        <path d="M1322 5188 c-16 -16 -15 -48 2 -48 7 0 19 7 26 16 18 21 -9 51 -28
        32z"></path>
        <path d="M280 5161 c0 -4 -16 -29 -35 -54 -34 -44 -43 -67 -27 -67 8 1 82 112
        82 123 0 4 -4 7 -10 7 -5 0 -10 -4 -10 -9z"></path>
        <path d="M2405 5137 c-81 -39 -158 -109 -185 -170 -25 -54 -25 -84 0 -124 21
        -36 59 -47 134 -42 36 3 46 1 50 -13 2 -10 10 -18 16 -18 16 0 4 68 -16 88 -8
        8 -13 21 -10 29 3 8 6 21 6 29 0 8 29 33 65 55 68 43 85 72 85 145 0 64 -43
        70 -145 21z"></path>
        <path d="M1207 5102 c-24 -27 -21 -32 17 -32 18 0 51 -6 73 -14 47 -16 118 -8
        118 14 0 11 -10 14 -43 12 -30 -2 -52 3 -76 17 -41 26 -68 27 -89 3z"></path>
        <path d="M730 5101 c0 -5 9 -11 21 -14 16 -4 18 -3 8 9 -13 16 -29 19 -29 5z"></path>
        <path d="M810 5060 c0 -5 14 -10 30 -10 17 0 30 5 30 10 0 6 -13 10 -30 10
        -16 0 -30 -4 -30 -10z"></path>
        <path d="M935 5050 c-7 -11 44 -34 54 -24 6 6 -27 34 -40 34 -4 0 -11 -5 -14
        -10z"></path>
        <path d="M6920 5028 c0 -62 -39 -186 -84 -270 -56 -103 -156 -332 -156 -356 0
        -10 -4 -22 -9 -28 -13 -13 -51 -124 -51 -149 1 -20 1 -20 16 0 8 11 22 44 31
        74 36 126 168 417 225 497 24 33 31 56 38 130 12 114 12 134 0 134 -5 0 -10
        -15 -10 -32z"></path>
        <path d="M210 4925 c0 -19 5 -35 10 -35 6 0 10 16 10 35 0 19 -4 35 -10 35 -5
        0 -10 -16 -10 -35z"></path>
        <path d="M200 4850 c0 -11 5 -20 10 -20 6 0 10 9 10 20 0 11 -4 20 -10 20 -5
        0 -10 -9 -10 -20z"></path>
        <path d="M185 4774 c-6 -32 -1 -54 9 -43 9 11 16 79 8 79 -6 0 -13 -16 -17
        -36z"></path>
        <path d="M2885 4774 c-13 -21 -14 -28 -4 -34 29 -19 60 23 36 47 -12 12 -17
        10 -32 -13z"></path>
        <path d="M161 4669 c-13 -44 -7 -67 7 -28 19 51 23 69 14 69 -5 0 -14 -18 -21
        -41z"></path>
        <path d="M3310 4660 c0 -5 5 -10 10 -10 6 0 10 5 10 10 0 6 -4 10 -10 10 -5 0
        -10 -4 -10 -10z"></path>
        <path d="M3151 4626 c-7 -8 -8 -16 -4 -19 13 -8 55 12 48 23 -9 14 -31 12 -44
        -4z"></path>
        <path d="M3797 4582 c-51 -31 -25 -79 38 -68 47 9 51 22 18 56 -27 28 -29 28
        -56 12z"></path>
        <path d="M116 4525 c-19 -74 -19 -78 -7 -71 5 3 14 27 20 53 7 27 14 56 17 66
        3 9 1 17 -4 17 -5 0 -17 -29 -26 -65z"></path>
        <path d="M3215 4581 c-7 -12 12 -24 25 -16 6 4 27 -3 46 -14 40 -24 54 -26 54
        -8 -1 28 -110 61 -125 38z"></path>
        <path d="M3382 4548 c-21 -21 -14 -48 12 -48 13 0 31 -3 40 -6 24 -9 31 23 11
        46 -20 23 -45 26 -63 8z"></path>
        <path d="M3500 4535 c-22 -27 1 -48 71 -67 35 -9 70 -16 77 -17 19 -2 14 17
        -6 24 -11 3 -24 16 -30 29 -6 14 -22 25 -39 28 -15 3 -35 8 -44 12 -9 4 -21 0
        -29 -9z"></path>
        <path d="M3650 4542 c0 -17 59 -64 76 -60 31 6 28 35 -5 52 -32 17 -71 21 -71
        8z"></path>
        <path d="M80 4410 c0 -5 5 -10 10 -10 6 0 10 5 10 10 0 6 -4 10 -10 10 -5 0
        -10 -4 -10 -10z"></path>
        <path d="M70 4360 c0 -11 5 -20 10 -20 6 0 10 9 10 20 0 11 -4 20 -10 20 -5 0
        -10 -9 -10 -20z"></path>
        <path d="M60 4300 c0 -11 5 -20 10 -20 6 0 10 9 10 20 0 11 -4 20 -10 20 -5 0
        -10 -9 -10 -20z"></path>
        <path d="M50 4230 c0 -16 5 -30 10 -30 6 0 10 14 10 30 0 17 -4 30 -10 30 -5
        0 -10 -13 -10 -30z"></path>
        <path d="M50 4115 c0 -8 5 -15 10 -15 6 0 10 7 10 15 0 8 -4 15 -10 15 -5 0
        -10 -7 -10 -15z"></path>
        <path d="M65 4038 c4 -18 31 -105 60 -193 29 -88 56 -175 60 -192 6 -31 25
        -47 25 -21 0 6 -27 91 -59 187 -33 97 -62 193 -66 214 -4 20 -12 37 -17 37 -6
        0 -7 -14 -3 -32z"></path>
        <path d="M210 3570 c-16 -30 -6 -50 25 -50 31 0 34 29 6 54 -19 17 -20 17 -31
        -4z"></path>
        <path d="M2477 3573 c-3 -4 -10 -35 -16 -68 -11 -59 -33 -136 -54 -185 -17
        -39 -57 -79 -117 -115 -66 -40 -105 -51 -230 -65 -103 -11 -166 -24 -220 -45
        -41 -16 -114 -31 -189 -40 -50 -6 -209 -54 -291 -89 -29 -12 -55 -13 -140 -5
        -140 12 -141 11 -137 -59 1 -31 -2 -67 -6 -80 -11 -29 16 -41 42 -18 23 21 50
        20 73 -1 13 -12 37 -17 82 -17 l64 -1 -3 -72 c-3 -67 -2 -74 21 -92 13 -10 33
        -17 43 -14 28 7 63 -32 59 -65 -2 -22 1 -27 17 -25 11 1 24 -5 28 -13 11 -19
        26 -18 49 3 14 12 23 14 41 6 12 -5 50 -8 85 -5 40 3 68 0 75 -7 6 -6 22 -11
        35 -11 17 0 27 -9 38 -36 8 -19 12 -44 9 -54 -3 -10 -1 -21 5 -25 13 -8 82 50
        92 77 21 52 64 -14 52 -78 -10 -52 11 -47 60 17 52 67 68 76 99 61 42 -20 76
        -22 119 -7 55 19 77 19 85 -1 4 -12 14 -14 35 -10 16 3 38 0 49 -7 17 -10 22
        -9 37 11 10 12 33 27 53 32 19 6 54 26 76 45 23 19 48 35 57 35 27 0 31 47 8
        98 -12 26 -26 65 -31 87 -6 22 -18 49 -26 60 -16 20 -16 20 -13 0 2 -10 -7
        -29 -19 -42 -14 -13 -23 -35 -24 -55 0 -31 -1 -31 -10 -10 -5 13 -7 28 -4 33
        3 5 1 17 -4 27 -18 34 -137 171 -179 208 -26 22 -45 49 -52 72 -18 65 -15 72
        30 72 40 0 40 0 71 70 18 39 39 72 49 75 10 3 35 34 56 68 33 56 37 69 38 134
        1 57 -3 77 -20 99 -22 30 -39 40 -47 27z m-711 -922 c5 -69 4 -71 -21 -77 -40
        -10 -55 1 -55 40 0 27 6 40 25 52 14 9 28 27 31 41 10 36 14 23 20 -56z"></path>
        <path d="M170 3515 c0 -8 5 -15 10 -15 6 0 10 7 10 15 0 8 -4 15 -10 15 -5 0
        -10 -7 -10 -15z"></path>
        <path d="M237 3482 c-27 -30 -10 -95 32 -127 45 -33 59 -21 42 37 -19 62 -39
        108 -49 108 -5 0 -16 -8 -25 -18z"></path>
        <path d="M686 3423 c-11 -11 -6 -23 9 -23 8 0 15 4 15 9 0 13 -16 22 -24 14z"></path>
        <path d="M626 3367 c-16 -13 -25 -27 -19 -30 5 -3 23 7 38 23 34 36 22 40 -19
        7z"></path>
        <path d="M707 3354 c-11 -12 -8 -36 7 -53 7 -9 16 -40 20 -68 6 -45 4 -53 -9
        -53 -21 0 -155 -63 -155 -72 0 -15 61 -8 98 11 20 10 56 24 80 31 23 7 42 18
        42 25 0 6 -11 35 -25 63 -14 29 -25 60 -25 70 0 23 -23 55 -33 46z"></path>
        <path d="M250 3312 c0 -5 7 -17 15 -28 8 -10 15 -31 15 -45 0 -26 24 -57 33
        -42 2 4 3 27 3 50 -1 30 -8 47 -21 58 -22 16 -45 20 -45 7z"></path>
        <path d="M567 3273 c-15 -14 -6 -24 16 -18 35 11 44 25 16 25 -14 0 -29 -3
        -32 -7z"></path>
        <path d="M310 3151 c-27 -7 -38 -37 -22 -53 13 -13 72 27 72 48 0 15 -10 16
        -50 5z"></path>
        <path d="M773 3114 c-17 -7 -35 -18 -38 -24 -13 -21 6 -24 38 -8 18 9 40 19
        50 22 19 6 14 27 -6 25 -7 0 -26 -7 -44 -15z"></path>
        <path d="M825 3040 c-46 -47 -43 -59 8 -25 20 14 43 25 52 25 21 0 16 34 -5
        38 -9 1 -33 -15 -55 -38z"></path>
        <path d="M538 3022 c-21 -15 -36 -31 -35 -36 7 -20 27 -16 60 13 19 17 40 31
        46 31 6 0 11 5 11 10 0 19 -45 9 -82 -18z"></path>
        <path d="M892 3002 c-67 -56 -162 -157 -151 -161 6 -2 16 2 22 8 6 6 19 11 28
        11 10 0 39 25 65 56 42 49 89 85 111 84 5 0 8 6 8 13 0 24 -49 18 -83 -11z"></path>
        <path d="M740 2955 c-7 -9 -10 -18 -7 -21 3 -3 10 4 17 15 13 25 8 27 -10 6z"></path>
        <path d="M635 2932 c-15 -11 -65 -87 -65 -99 0 -6 18 -28 40 -50 30 -30 38
        -45 33 -62 -4 -16 2 -30 21 -50 20 -21 26 -36 24 -61 -4 -51 19 -49 42 3 17
        38 18 50 8 74 -6 15 -10 31 -10 36 1 4 -13 21 -30 37 -32 29 -32 30 -8 27 16
        -1 25 4 28 16 2 10 -3 17 -12 17 -20 0 -21 30 -1 56 20 26 19 34 -7 34 -12 0
        -29 7 -37 14 -9 8 -21 12 -26 8z"></path>
        <path d="M942 2868 c-15 -20 -24 -56 -14 -62 15 -9 53 39 46 57 -7 20 -18 22
        -32 5z"></path>
        <path d="M3035 2817 c-8 -19 12 -50 26 -41 13 7 11 17 -5 40 -14 18 -15 18
        -21 1z"></path>
        <path d="M1126 2749 c-9 -46 -8 -49 16 -46 39 4 35 -32 -8 -68 -36 -31 -37
        -34 -35 -90 2 -65 11 -87 49 -127 18 -19 36 -28 58 -28 27 0 36 6 58 45 32 53
        51 59 41 13 -4 -18 -8 -37 -9 -43 0 -5 19 -12 44 -15 38 -5 52 -13 94 -58 31
        -33 57 -52 71 -52 13 0 40 -8 62 -19 107 -53 189 -63 393 -47 101 8 151 0 196
        -30 26 -18 64 -30 128 -40 50 -8 118 -24 150 -35 40 -14 71 -19 96 -15 53 8
        181 70 229 110 33 28 50 35 80 33 49 -2 87 24 96 63 7 32 36 53 43 32 2 -7 12
        -17 22 -22 16 -8 22 -6 32 15 l14 25 32 -27 c31 -27 62 -95 62 -135 0 -28 43
        -87 79 -109 21 -13 31 -27 31 -43 0 -17 8 -27 29 -36 16 -6 39 -22 52 -36 30
        -32 44 -30 84 9 18 17 49 45 69 60 50 40 56 80 21 153 -37 79 -51 192 -29 235
        15 30 15 33 -4 58 -11 15 -31 27 -48 29 -15 2 -41 15 -57 28 -16 13 -33 24
        -37 24 -5 0 -14 18 -20 40 -12 46 -32 51 -56 15 -9 -14 -20 -25 -24 -25 -12 0
        -50 68 -50 89 0 23 -25 45 -40 36 -6 -4 -8 -15 -5 -25 3 -11 -2 -42 -12 -69
        -13 -39 -20 -47 -30 -39 -7 6 -13 30 -13 54 0 37 -4 46 -24 56 -42 18 -59 4
        -53 -45 2 -23 8 -51 12 -62 4 -11 -11 0 -33 24 -42 47 -65 48 -62 3 3 -44 1
        -52 -15 -52 -9 0 -17 14 -21 39 -9 57 -16 63 -59 55 l-37 -7 6 -63 c4 -41 3
        -65 -4 -69 -6 -4 -11 -19 -10 -33 4 -52 0 -63 -17 -61 -24 3 -72 -9 -105 -27
        -38 -20 -46 -18 -53 17 -13 60 -65 44 -65 -20 0 -38 -14 -61 -37 -61 -10 0
        -13 11 -11 38 3 31 0 37 -18 40 -16 2 -26 -5 -38 -29 -9 -18 -16 -38 -16 -46
        0 -7 -12 -18 -27 -24 -16 -6 -36 -17 -45 -26 -16 -15 -23 -14 -74 6 -69 26
        -99 26 -147 1 -44 -24 -119 -27 -137 -5 -7 8 -18 15 -26 15 -7 0 -22 10 -34
        22 l-20 22 0 -30 c0 -55 -8 -58 -137 -61 -94 -1 -126 2 -158 16 -22 10 -63 28
        -92 41 -30 13 -64 38 -80 59 -28 36 -93 160 -93 178 0 15 -43 50 -74 60 -23 7
        -31 18 -41 54 -25 90 -43 119 -74 119 -24 0 -29 -5 -35 -31z m1961 -284 c0
        -36 -4 -45 -16 -43 -18 4 -29 58 -12 58 6 0 11 7 11 15 0 8 4 15 8 15 5 0 9
        -20 9 -45z"></path>
        <path d="M1286 2691 c-4 -5 -2 -12 3 -15 5 -4 12 -2 15 3 4 5 2 12 -3 15 -5 4
        -12 2 -15 -3z"></path>
        <path d="M1376 2551 c-4 -5 -2 -12 3 -15 5 -4 12 -2 15 3 4 5 2 12 -3 15 -5 4
        -12 2 -15 -3z"></path>
        <path d="M705 2450 c-4 -6 -3 -16 3 -22 6 -6 12 -6 17 2 4 6 3 16 -3 22 -6 6
        -12 6 -17 -2z"></path>
        <path d="M1747 2336 c-18 -14 -23 -36 -9 -36 14 0 44 38 35 43 -5 3 -16 0 -26
        -7z"></path>
        <path d="M3534 1893 c10 -52 10 -53 2 -95 -6 -32 -4 -38 10 -38 10 0 28 9 40
        21 19 18 21 25 12 57 -15 56 -37 92 -55 92 -13 0 -14 -7 -9 -37z"></path>
        <path d="M560 1726 c0 -14 5 -26 10 -26 6 0 10 9 10 19 0 11 -4 23 -10 26 -6
        4 -10 -5 -10 -19z"></path>
        <path d="M1360 1649 c-19 -12 -50 -34 -68 -50 -18 -16 -38 -29 -45 -29 -30 0
        -97 -97 -97 -140 0 -28 43 -70 71 -70 21 0 65 12 116 31 12 4 30 27 41 51 10
        24 30 60 45 81 26 38 26 67 1 88 -8 6 -14 22 -14 35 0 29 -6 30 -50 3z"></path>
        <path d="M1617 1478 c-2 -7 2 -28 9 -47 9 -20 12 -48 8 -68 -7 -37 -12 -40
        -29 -16 -16 22 -35 8 -35 -26 l0 -28 73 0 c39 1 78 -1 85 -4 8 -2 19 4 25 13
        9 14 6 23 -18 48 -16 16 -34 30 -39 30 -26 1 -37 17 -28 41 12 32 -2 69 -27
        69 -11 0 -21 -6 -24 -12z"></path>
        <path d="M1064 1349 c-10 -17 13 -36 27 -22 12 12 4 33 -11 33 -5 0 -12 -5
        -16 -11z"></path>
        <path d="M1462 1328 c-7 -7 -12 -23 -12 -36 0 -18 4 -23 16 -18 9 3 18 6 20 6
        2 0 4 14 4 30 0 32 -9 37 -28 18z"></path>
        <path d="M2451 1132 c-15 -28 -14 -75 1 -70 18 6 34 66 20 80 -7 7 -13 4 -21
        -10z"></path>
        <path d="M1312 1059 c1 -12 9 -24 16 -27 9 -3 13 3 10 19 -1 12 -9 24 -16 27
        -9 3 -13 -3 -10 -19z"></path>
        <path d="M1685 1059 c-4 -6 -5 -13 -2 -16 7 -7 27 6 27 18 0 12 -17 12 -25 -2z"></path>
        <path d="M2126 1041 c-3 -5 1 -14 8 -20 16 -13 32 2 21 19 -8 12 -22 13 -29 1z"></path>
        <path d="M1350 870 c0 -11 5 -20 10 -20 6 0 10 9 10 20 0 11 -4 20 -10 20 -5
        0 -10 -9 -10 -20z"></path>
        <path d="M1260 855 c0 -8 5 -15 10 -15 6 0 10 7 10 15 0 8 -4 15 -10 15 -5 0
        -10 -7 -10 -15z"></path>
    </g>
</svg>